<svg xmlns="http://www.w3.org/2000/svg" viewBox="0 0 44.69 28"><defs><style>.a{fill:gray;}</style></defs><path class="a" d="M0,0C2.1,0,4.14,0,6.19,0c3.36.09,6.74,0,10.07.4A5.43,5.43,0,0,1,21.5,5.3c.57,3.12-.38,5.25-3.11,7-.06,0-.12.1-.26.22a3.66,3.66,0,0,0,.47.3,6.47,6.47,0,0,1,4.27,6.06c.21,3.08-.8,5.68-3.63,7.11a12.24,12.24,0,0,1-4.9,1.39c-4.75.18-9.51.07-14.34.07ZM6,15.29V22.7c2.64,0,5.19.17,7.71-.05,2.3-.19,3.27-1.54,3.18-3.73a3.42,3.42,0,0,0-3.45-3.6C11,15.18,8.56,15.29,6,15.29Zm0-4.24c2.39,0,4.69.07,7,0a2.77,2.77,0,0,0,2.78-2.74c.15-1.95-.53-3.14-2.39-3.37C11,4.63,8.49,4.66,6,4.55Z"/><path class="a" d="M44.69,18.82H30.44a4.2,4.2,0,0,0,2.13,4.6c2.11,1,4.91.61,6.22-1.1a2.22,2.22,0,0,1,2.15-1c1,.07,2.05,0,3.23,0a9.62,9.62,0,0,1-2.77,4.54c-3.34,3-12.18,3.34-15.34-2.79-2.84-5.48-1.25-14.26,6.79-15.88a9.4,9.4,0,0,1,11.5,8C44.53,16.36,44.57,17.51,44.69,18.82ZM30.33,15.36h8.72c-.34-2.9-1.91-4.34-4.5-4.23A4.14,4.14,0,0,0,30.33,15.36Z"/><path class="a" d="M29.15,4.45V2h11V4.45Z"/></svg>