<svg xmlns="http://www.w3.org/2000/svg" viewBox="0 0 28.09 28.1"><defs><style>.a{fill:gray;}</style></defs><path class="a" d="M14.06,0h5.75a8.2,8.2,0,0,1,8.28,8.29V19.8a8.19,8.19,0,0,1-8.24,8.28q-5.81,0-11.61,0A8.18,8.18,0,0,1,0,19.84Q0,14,0,8.23A8.19,8.19,0,0,1,8.3,0Zm0,2.35c-1.9,0-3.8,0-5.7,0a5.84,5.84,0,0,0-6,6q0,5.7,0,11.42a5.84,5.84,0,0,0,6,6H19.75a5.83,5.83,0,0,0,6-6q0-5.7,0-11.38a5.83,5.83,0,0,0-6-6Z"/><path class="a" d="M14.05,21.07a7,7,0,1,1,7-7A7,7,0,0,1,14.05,21.07Zm0-11.7A4.68,4.68,0,1,0,18.72,14,4.67,4.67,0,0,0,14.05,9.37Z"/><path class="a" d="M23.41,6.45a1.76,1.76,0,1,1-3.51,0,1.76,1.76,0,0,1,3.51,0Z"/></svg>