<svg xmlns="http://www.w3.org/2000/svg" viewBox="0 0 28.09 28.09"><defs><style>.a{fill:gray;}</style></defs><path class="a" d="M0,14A14,14,0,1,1,13.64,28.09,14.07,14.07,0,0,1,0,14Zm13.25,3.79.08.09a2.25,2.25,0,0,0,.54.57,3.6,3.6,0,0,0,2,.75,5.54,5.54,0,0,0,4-1.37,7,7,0,0,0,1.82-2.51,10.24,10.24,0,0,0,.83-4.16A6.25,6.25,0,0,0,21,7.05a7.36,7.36,0,0,0-5.26-2.66,9.93,9.93,0,0,0-2.72.15A7.89,7.89,0,0,0,8.87,6.63,7,7,0,0,0,6.67,13,5,5,0,0,0,7.45,15,3.5,3.5,0,0,0,9,16.27.43.43,0,0,0,9.62,16c.09-.33.16-.66.25-1a.54.54,0,0,0-.12-.52l-.12-.15A3.35,3.35,0,0,1,9,13a4.77,4.77,0,0,1,0-1.92,5.36,5.36,0,0,1,3.16-4.17,6.23,6.23,0,0,1,4.08-.37,4.28,4.28,0,0,1,2,1,4.14,4.14,0,0,1,1.42,3A9.45,9.45,0,0,1,19,14.37,5.4,5.4,0,0,1,18,16.19a2.8,2.8,0,0,1-2,1,1.89,1.89,0,0,1-1.49-.57A1.69,1.69,0,0,1,14,14.93c.16-.62.34-1.23.53-1.84A14.59,14.59,0,0,0,15,11.25a2.44,2.44,0,0,0-.11-1.34A1.41,1.41,0,0,0,13.72,9a1.85,1.85,0,0,0-1.43.4,2.61,2.61,0,0,0-.83,1.11,4.47,4.47,0,0,0,0,3.26.54.54,0,0,1,0,.33c-.44,1.87-.87,3.74-1.32,5.6a11.23,11.23,0,0,0-.37,2.57A16.71,16.71,0,0,0,10,24.68c0,.11,0,.23.15.27s.19-.08.25-.16a15.44,15.44,0,0,0,1.17-1.73,9.59,9.59,0,0,0,1-2.46c.19-.81.4-1.61.61-2.42C13.19,18.07,13.22,18,13.25,17.83Z"/></svg>